<?xml version="1.0" standalone="no"?>
<!DOCTYPE svg PUBLIC "-//W3C//DTD SVG 20010904//EN"
 "http://www.w3.org/TR/2001/REC-SVG-20010904/DTD/svg10.dtd">
<svg version="1.0" xmlns="http://www.w3.org/2000/svg"
 width="225.000000pt" height="225.000000pt" viewBox="0 0 225.000000 225.000000"
 preserveAspectRatio="xMidYMid meet">

<g transform="translate(0.000000,225.000000) scale(0.100000,-0.100000)"
fill="#000000" stroke="none">
<path d="M805 1948 c-49 -22 -91 -41 -93 -42 -1 -2 -27 -57 -57 -122 l-55
-119 -116 -46 -116 -45 -39 -90 c-21 -49 -38 -94 -39 -101 0 -7 16 -51 35 -99
19 -47 35 -94 35 -104 0 -10 -23 -72 -51 -139 l-51 -121 36 -98 c20 -53 40
-102 44 -109 4 -7 62 -34 127 -61 l120 -49 49 -129 c27 -71 50 -130 51 -132 5
-6 170 -72 182 -72 7 0 60 20 117 45 58 25 112 45 120 45 8 0 50 -16 93 -36
43 -20 98 -44 123 -54 l45 -18 90 37 90 38 42 94 c66 149 55 138 200 197 l131
54 37 89 38 89 -47 107 c-25 60 -46 116 -46 125 0 10 22 73 49 142 l50 123
-33 89 c-28 77 -37 91 -67 106 -55 28 -146 67 -173 74 -35 8 -38 14 -85 154
l-42 125 -102 38 c-56 20 -106 37 -110 37 -4 0 -57 -21 -117 -46 l-110 -46
-129 56 c-70 31 -130 56 -132 55 -2 0 -44 -19 -94 -41z m193 -98 c17 -8 32
-18 32 -21 0 -3 -30 -19 -67 -34 -38 -15 -73 -33 -79 -39 -6 -6 -59 -128 -118
-271 -59 -143 -112 -264 -118 -270 -7 -7 -9 -6 -5 1 6 11 -6 45 -49 141 -8 17
-14 40 -14 52 0 22 40 128 89 233 17 36 31 71 31 78 0 6 4 9 9 6 5 -3 12 4 16
17 4 12 8 25 10 30 1 4 3 12 4 17 0 6 8 10 16 10 8 0 19 9 25 19 6 12 17 17
28 15 10 -3 27 3 38 13 26 22 105 24 152 3z m384 -5 c16 -3 46 -13 68 -24 22
-10 49 -17 60 -14 11 3 20 1 21 -3 0 -5 3 -29 5 -54 3 -29 1 -40 -5 -31 -6 10
-14 11 -27 3 -15 -8 -11 -13 32 -35 27 -15 45 -26 41 -27 -11 0 -160 61 -171
71 -9 8 -100 -24 -255 -89 l-94 -40 -121 -288 c-166 -392 -162 -383 -171 -359
-4 11 -16 38 -25 60 -10 22 -21 50 -25 63 -3 12 -11 19 -17 16 -20 -13 0 61
50 181 28 66 81 194 119 284 l69 164 170 68 c174 69 175 70 276 54z m145 -215
c65 -28 137 -61 161 -73 81 -42 107 -57 97 -57 -5 0 1 -7 13 -16 19 -13 22
-24 22 -85 0 -39 4 -69 10 -69 6 0 10 -14 10 -31 0 -24 -4 -30 -15 -25 -9 3
-15 0 -15 -9 0 -8 -4 -15 -8 -15 -11 0 -42 65 -42 87 0 9 -3 14 -6 10 -3 -3
-15 2 -25 12 -21 19 -160 72 -196 75 -11 0 -20 4 -18 7 2 3 -13 11 -33 18 -44
16 -70 27 -175 75 -44 20 -83 36 -87 36 -5 0 -12 5 -15 10 -6 10 48 38 155 81
25 10 46 18 47 19 1 0 55 -23 120 -50z m-999 -169 l-20 -56 45 -110 c25 -61
75 -180 111 -265 36 -85 66 -158 66 -162 0 -7 -36 3 -75 22 -11 5 -42 18 -70
29 -47 18 -51 22 -79 87 -16 38 -42 98 -57 133 -31 69 -35 92 -18 119 8 13 7
27 -5 56 -21 51 -21 56 14 107 16 24 30 51 30 60 0 23 18 36 49 36 l29 0 -20
-56z m713 -35 c85 -36 155 -69 157 -74 2 -6 -8 -37 -22 -71 -28 -66 -30 -71
-18 -71 8 0 32 49 32 67 0 7 5 13 10 13 6 0 10 10 10 23 0 16 3 18 9 8 6 -9 8
-4 7 16 -2 16 -5 34 -8 39 -4 5 7 10 23 11 18 1 29 -3 29 -11 0 -7 6 -13 14
-13 11 0 12 6 5 24 -13 34 -12 34 19 18 15 -8 66 -31 113 -50 66 -28 89 -43
99 -63 15 -34 107 -261 130 -324 18 -46 18 -48 -4 -87 -34 -63 -78 -106 -108
-108 -31 -1 -35 11 -17 51 7 14 8 33 4 43 -4 10 -9 24 -11 31 -1 7 -9 24 -18
37 -9 13 -16 29 -16 35 0 6 -9 20 -20 32 -11 12 -20 28 -20 35 0 7 -4 13 -8
13 -5 0 -9 6 -9 14 0 30 -48 126 -61 121 -7 -3 -12 1 -11 8 2 23 -13 57 -24
50 -6 -4 -8 4 -3 23 5 21 4 25 -4 14 -8 -13 -10 -13 -10 1 0 28 -25 69 -42 69
-10 0 -18 -7 -18 -15 0 -8 5 -14 11 -12 6 1 28 -41 50 -93 l40 -95 -30 -75
c-57 -145 -202 -485 -216 -506 -7 -12 -38 -30 -67 -42 -29 -11 -90 -35 -136
-53 -62 -24 -86 -29 -95 -20 -6 6 -21 11 -33 11 -13 0 -38 13 -56 30 -18 16
-41 30 -52 30 -21 0 -17 10 6 14 7 1 24 8 38 16 14 7 79 37 145 65 86 37 123
59 132 76 7 13 33 73 59 133 40 95 44 110 30 118 -9 5 -16 13 -16 18 0 14 27
12 34 -2 3 -7 3 -2 0 11 -4 16 -2 21 5 17 7 -4 9 -1 5 8 -5 12 -9 11 -25 -5
-10 -10 -29 -18 -42 -18 -19 1 -20 2 -3 6 18 5 -44 34 -176 85 -16 5 -25 15
-21 21 3 5 1 7 -5 4 -14 -9 -43 3 -36 14 3 5 -1 6 -9 3 -8 -3 -21 2 -30 10 -9
9 -20 16 -26 16 -17 0 -13 21 13 86 13 32 30 60 38 62 17 3 328 -127 328 -138
0 -4 -11 -33 -25 -64 -27 -60 -31 -86 -15 -86 6 0 10 9 10 20 0 11 5 20 10 20
6 0 10 7 10 15 0 8 5 15 10 15 6 0 10 10 10 23 0 39 12 68 25 63 8 -3 16 1 19
9 3 9 0 12 -10 8 -21 -8 -76 17 -70 33 5 13 -41 50 -51 41 -3 -3 8 -12 23 -20
17 -9 23 -17 15 -21 -6 -4 -18 0 -27 9 -10 10 -24 13 -36 9 -14 -4 -18 -2 -14
5 5 7 1 9 -8 5 -9 -3 -16 -1 -16 5 0 6 -5 11 -11 11 -6 0 -24 13 -41 30 -21
21 -24 28 -11 25 20 -7 -62 41 -90 51 -10 4 -16 9 -14 13 9 16 40 87 42 96 6
26 18 45 30 45 7 0 82 -29 166 -64z m124 54 c3 -5 -1 -10 -10 -10 -9 0 -13 5
-10 10 3 6 8 10 10 10 2 0 7 -4 10 -10z m12 -76 c-3 -3 -12 -4 -19 -1 -8 3 -5
6 6 6 11 1 17 -2 13 -5z m63 -4 c0 -5 -2 -10 -4 -10 -3 0 -8 5 -11 10 -3 6 -1
10 4 10 6 0 11 -4 11 -10z m146 -275 c2 -14 1 -24 -4 -21 -5 3 -9 17 -9 31 0
32 6 27 13 -10z m-6 -44 c0 -6 -4 -12 -10 -16 -5 -3 -7 -12 -4 -20 4 -8 10
-13 14 -10 9 5 80 -169 80 -195 0 -18 -125 -312 -131 -309 -2 1 -15 -3 -27
-10 -18 -10 -22 -18 -18 -37 4 -14 2 -24 -4 -24 -5 0 -11 8 -11 18 -1 15 -2
14 -6 -2 -4 -15 -7 -16 -13 -5 -7 10 -18 6 -50 -20 -51 -41 -96 -49 -141 -25
l-34 17 69 32 68 31 74 183 c41 101 71 188 67 195 -3 6 -2 7 2 3 10 -8 44 66
44 97 1 16 -1 16 -14 6 -12 -10 -13 -15 -4 -20 8 -6 8 -9 0 -14 -20 -13 -23
21 -5 56 16 30 18 31 26 13 6 -16 7 -14 4 9 -2 17 -2 36 1 43 6 15 23 18 23 4z
m-423 -138 l62 -25 -18 -46 c-35 -87 -44 -102 -63 -102 -10 0 -18 4 -18 10 0
5 -7 7 -15 4 -8 -4 -15 -1 -15 6 0 6 -4 8 -10 5 -5 -3 -10 -1 -10 5 0 7 -7 10
-15 6 -8 -3 -15 -2 -15 2 0 8 -60 33 -90 38 -8 2 -16 7 -18 13 -2 5 -9 8 -16
5 -8 -3 -20 1 -27 8 -8 7 -26 19 -41 25 -30 14 -31 7 19 124 l16 37 106 -45
c58 -24 134 -56 168 -70z m87 -2 c4 -5 -3 -7 -14 -4 -23 6 -26 13 -6 13 8 0
17 -4 20 -9z m276 -26 c0 -5 -5 -3 -10 5 -5 8 -10 20 -10 25 0 6 5 3 10 -5 5
-8 10 -19 10 -25z m-985 -40 c54 -23 171 -71 340 -140 77 -31 143 -60 148 -64
8 -8 -162 -81 -189 -81 -8 0 -81 27 -161 61 -108 44 -157 71 -187 99 -23 22
-50 46 -61 54 -20 14 -20 15 3 46 13 17 23 41 22 53 -4 40 0 42 23 15 12 -14
40 -34 62 -43z m735 35 c0 -5 -2 -10 -4 -10 -3 0 -8 5 -11 10 -3 6 -1 10 4 10
6 0 11 -4 11 -10z m-470 -380 c0 -5 -2 -10 -4 -10 -3 0 -8 5 -11 10 -3 6 -1
10 4 10 6 0 11 -4 11 -10z m77 -36 c-3 -3 -12 -4 -19 -1 -8 3 -5 6 6 6 11 1
17 -2 13 -5z"/>
<path d="M1500 1341 c0 -6 4 -13 10 -16 6 -3 7 1 4 9 -7 18 -14 21 -14 7z"/>
<path d="M1140 1261 c0 -5 5 -13 10 -16 6 -3 10 -2 10 4 0 5 -4 13 -10 16 -5
3 -10 2 -10 -4z"/>
<path d="M1178 1248 c5 -5 16 -8 23 -6 8 3 3 7 -10 11 -17 4 -21 3 -13 -5z"/>
<path d="M1305 1189 c-11 -16 -1 -19 13 -3 7 8 8 14 3 14 -5 0 -13 -5 -16 -11z"/>
<path d="M1351 1099 c-7 -12 -10 -23 -8 -26 3 -3 11 5 17 17 15 28 8 35 -9 9z"/>
<path d="M1326 1035 c-9 -26 -7 -32 5 -12 6 10 9 21 6 23 -2 3 -7 -2 -11 -11z"/>
</g>
</svg>
